<svg width="449" height="64" viewBox="0 0 449 64" fill="none" xmlns="http://www.w3.org/2000/svg">
<rect width="449" height="64" rx="12" fill="white"/>
<path d="M35.64 25.49L31.932 38H29.61L26.982 28.532L24.192 38L21.888 38.018L18.342 25.49H20.52L23.112 35.678L25.92 25.49H28.224L30.834 35.624L33.444 25.49H35.64ZM42.4624 27.92C43.2184 27.92 43.8904 28.082 44.4784 28.406C45.0784 28.73 45.5464 29.21 45.8824 29.846C46.2304 30.482 46.4044 31.25 46.4044 32.15V38H44.3704V32.456C44.3704 31.568 44.1484 30.89 43.7044 30.422C43.2604 29.942 42.6544 29.702 41.8864 29.702C41.1184 29.702 40.5064 29.942 40.0504 30.422C39.6064 30.89 39.3844 31.568 39.3844 32.456V38H37.3324V24.68H39.3844V29.234C39.7324 28.814 40.1704 28.49 40.6984 28.262C41.2384 28.034 41.8264 27.92 42.4624 27.92ZM48.3379 32.996C48.3379 32 48.5419 31.118 48.9499 30.35C49.3699 29.582 49.9339 28.988 50.6419 28.568C51.3619 28.136 52.1539 27.92 53.0179 27.92C53.7979 27.92 54.4759 28.076 55.0519 28.388C55.6399 28.688 56.1079 29.066 56.4559 29.522V28.082H58.5259V38H56.4559V36.524C56.1079 36.992 55.6339 37.382 55.0339 37.694C54.4339 38.006 53.7499 38.162 52.9819 38.162C52.1299 38.162 51.3499 37.946 50.6419 37.514C49.9339 37.07 49.3699 36.458 48.9499 35.678C48.5419 34.886 48.3379 33.992 48.3379 32.996ZM56.4559 33.032C56.4559 32.348 56.3119 31.754 56.0239 31.25C55.7479 30.746 55.3819 30.362 54.9259 30.098C54.4699 29.834 53.9779 29.702 53.4499 29.702C52.9219 29.702 52.4299 29.834 51.9739 30.098C51.5179 30.35 51.1459 30.728 50.8579 31.232C50.5819 31.724 50.4439 32.312 50.4439 32.996C50.4439 33.68 50.5819 34.28 50.8579 34.796C51.1459 35.312 51.5179 35.708 51.9739 35.984C52.4419 36.248 52.9339 36.38 53.4499 36.38C53.9779 36.38 54.4699 36.248 54.9259 35.984C55.3819 35.72 55.7479 35.336 56.0239 34.832C56.3119 34.316 56.4559 33.716 56.4559 33.032ZM63.6151 29.756V35.246C63.6151 35.618 63.6991 35.888 63.8671 36.056C64.0471 36.212 64.3471 36.29 64.7671 36.29H66.0271V38H64.4071C63.4831 38 62.7751 37.784 62.2831 37.352C61.7911 36.92 61.5451 36.218 61.5451 35.246V29.756H60.3751V28.082H61.5451V25.616H63.6151V28.082H66.0271V29.756H63.6151ZM71.9101 32.996C71.9101 32 72.1141 31.118 72.5221 30.35C72.9421 29.582 73.5061 28.988 74.2141 28.568C74.9341 28.136 75.7261 27.92 76.5901 27.92C77.3701 27.92 78.0481 28.076 78.6241 28.388C79.2121 28.688 79.6801 29.066 80.0281 29.522V28.082H82.0981V38H80.0281V36.524C79.6801 36.992 79.2061 37.382 78.6061 37.694C78.0061 38.006 77.3221 38.162 76.5541 38.162C75.7021 38.162 74.9221 37.946 74.2141 37.514C73.5061 37.07 72.9421 36.458 72.5221 35.678C72.1141 34.886 71.9101 33.992 71.9101 32.996ZM80.0281 33.032C80.0281 32.348 79.8841 31.754 79.5961 31.25C79.3201 30.746 78.9541 30.362 78.4981 30.098C78.0421 29.834 77.5501 29.702 77.0221 29.702C76.4941 29.702 76.0021 29.834 75.5461 30.098C75.0901 30.35 74.7181 30.728 74.4301 31.232C74.1541 31.724 74.0161 32.312 74.0161 32.996C74.0161 33.68 74.1541 34.28 74.4301 34.796C74.7181 35.312 75.0901 35.708 75.5461 35.984C76.0141 36.248 76.5061 36.38 77.0221 36.38C77.5501 36.38 78.0421 36.248 78.4981 35.984C78.9541 35.72 79.3201 35.336 79.5961 34.832C79.8841 34.316 80.0281 33.716 80.0281 33.032ZM86.8454 29.522C87.1454 29.018 87.5414 28.628 88.0334 28.352C88.5374 28.064 89.1314 27.92 89.8154 27.92V30.044H89.2934C88.4894 30.044 87.8774 30.248 87.4574 30.656C87.0494 31.064 86.8454 31.772 86.8454 32.78V38H84.7934V28.082H86.8454V29.522ZM100.792 32.798C100.792 33.17 100.768 33.506 100.72 33.806H93.1416C93.2016 34.598 93.4956 35.234 94.0236 35.714C94.5516 36.194 95.1996 36.434 95.9676 36.434C97.0716 36.434 97.8516 35.972 98.3076 35.048H100.522C100.222 35.96 99.6756 36.71 98.8836 37.298C98.1036 37.874 97.1316 38.162 95.9676 38.162C95.0196 38.162 94.1676 37.952 93.4116 37.532C92.6676 37.1 92.0796 36.5 91.6476 35.732C91.2276 34.952 91.0176 34.052 91.0176 33.032C91.0176 32.012 91.2216 31.118 91.6296 30.35C92.0496 29.57 92.6316 28.97 93.3756 28.55C94.1316 28.13 94.9956 27.92 95.9676 27.92C96.9036 27.92 97.7376 28.124 98.4696 28.532C99.2016 28.94 99.7716 29.516 100.18 30.26C100.588 30.992 100.792 31.838 100.792 32.798ZM98.6496 32.15C98.6376 31.394 98.3676 30.788 97.8396 30.332C97.3116 29.876 96.6576 29.648 95.8776 29.648C95.1696 29.648 94.5636 29.876 94.0596 30.332C93.5556 30.776 93.2556 31.382 93.1596 32.15H98.6496ZM116.415 28.082L110.331 42.662H108.207L110.223 37.838L106.317 28.082H108.603L111.393 35.642L114.291 28.082H116.415ZM122.265 38.162C121.329 38.162 120.483 37.952 119.727 37.532C118.971 37.1 118.377 36.5 117.945 35.732C117.513 34.952 117.297 34.052 117.297 33.032C117.297 32.024 117.519 31.13 117.963 30.35C118.407 29.57 119.013 28.97 119.781 28.55C120.549 28.13 121.407 27.92 122.355 27.92C123.303 27.92 124.161 28.13 124.929 28.55C125.697 28.97 126.303 29.57 126.747 30.35C127.191 31.13 127.413 32.024 127.413 33.032C127.413 34.04 127.185 34.934 126.729 35.714C126.273 36.494 125.649 37.1 124.857 37.532C124.077 37.952 123.213 38.162 122.265 38.162ZM122.265 36.38C122.793 36.38 123.285 36.254 123.741 36.002C124.209 35.75 124.587 35.372 124.875 34.868C125.163 34.364 125.307 33.752 125.307 33.032C125.307 32.312 125.169 31.706 124.893 31.214C124.617 30.71 124.251 30.332 123.795 30.08C123.339 29.828 122.847 29.702 122.319 29.702C121.791 29.702 121.299 29.828 120.843 30.08C120.399 30.332 120.045 30.71 119.781 31.214C119.517 31.706 119.385 32.312 119.385 33.032C119.385 34.1 119.655 34.928 120.195 35.516C120.747 36.092 121.437 36.38 122.265 36.38ZM138.424 28.082V38H136.372V36.83C136.048 37.238 135.622 37.562 135.094 37.802C134.578 38.03 134.026 38.144 133.438 38.144C132.658 38.144 131.956 37.982 131.332 37.658C130.72 37.334 130.234 36.854 129.874 36.218C129.526 35.582 129.352 34.814 129.352 33.914V28.082H131.386V33.608C131.386 34.496 131.608 35.18 132.052 35.66C132.496 36.128 133.102 36.362 133.87 36.362C134.638 36.362 135.244 36.128 135.688 35.66C136.144 35.18 136.372 34.496 136.372 33.608V28.082H138.424ZM147.859 24.68V38H145.807V24.68H147.859ZM154.855 38.162C153.919 38.162 153.073 37.952 152.317 37.532C151.561 37.1 150.967 36.5 150.535 35.732C150.103 34.952 149.887 34.052 149.887 33.032C149.887 32.024 150.109 31.13 150.553 30.35C150.997 29.57 151.603 28.97 152.371 28.55C153.139 28.13 153.997 27.92 154.945 27.92C155.893 27.92 156.751 28.13 157.519 28.55C158.287 28.97 158.893 29.57 159.337 30.35C159.781 31.13 160.003 32.024 160.003 33.032C160.003 34.04 159.775 34.934 159.319 35.714C158.863 36.494 158.239 37.1 157.447 37.532C156.667 37.952 155.803 38.162 154.855 38.162ZM154.855 36.38C155.383 36.38 155.875 36.254 156.331 36.002C156.799 35.75 157.177 35.372 157.465 34.868C157.753 34.364 157.897 33.752 157.897 33.032C157.897 32.312 157.759 31.706 157.483 31.214C157.207 30.71 156.841 30.332 156.385 30.08C155.929 29.828 155.437 29.702 154.909 29.702C154.381 29.702 153.889 29.828 153.433 30.08C152.989 30.332 152.635 30.71 152.371 31.214C152.107 31.706 151.975 32.312 151.975 33.032C151.975 34.1 152.245 34.928 152.785 35.516C153.337 36.092 154.027 36.38 154.855 36.38ZM166.334 38.162C165.398 38.162 164.552 37.952 163.796 37.532C163.04 37.1 162.446 36.5 162.014 35.732C161.582 34.952 161.366 34.052 161.366 33.032C161.366 32.024 161.588 31.13 162.032 30.35C162.476 29.57 163.082 28.97 163.85 28.55C164.618 28.13 165.476 27.92 166.424 27.92C167.372 27.92 168.23 28.13 168.998 28.55C169.766 28.97 170.372 29.57 170.816 30.35C171.26 31.13 171.482 32.024 171.482 33.032C171.482 34.04 171.254 34.934 170.798 35.714C170.342 36.494 169.718 37.1 168.926 37.532C168.146 37.952 167.282 38.162 166.334 38.162ZM166.334 36.38C166.862 36.38 167.354 36.254 167.81 36.002C168.278 35.75 168.656 35.372 168.944 34.868C169.232 34.364 169.376 33.752 169.376 33.032C169.376 32.312 169.238 31.706 168.962 31.214C168.686 30.71 168.32 30.332 167.864 30.08C167.408 29.828 166.916 29.702 166.388 29.702C165.86 29.702 165.368 29.828 164.912 30.08C164.468 30.332 164.114 30.71 163.85 31.214C163.586 31.706 163.454 32.312 163.454 33.032C163.454 34.1 163.724 34.928 164.264 35.516C164.816 36.092 165.506 36.38 166.334 36.38ZM177.434 33.05L182.006 38H179.234L175.562 33.734V38H173.51V24.68H175.562V32.42L179.162 28.082H182.006L177.434 33.05ZM184.521 26.768C184.149 26.768 183.837 26.642 183.585 26.39C183.333 26.138 183.207 25.826 183.207 25.454C183.207 25.082 183.333 24.77 183.585 24.518C183.837 24.266 184.149 24.14 184.521 24.14C184.881 24.14 185.187 24.266 185.439 24.518C185.691 24.77 185.817 25.082 185.817 25.454C185.817 25.826 185.691 26.138 185.439 26.39C185.187 26.642 184.881 26.768 184.521 26.768ZM185.529 28.082V38H183.477V28.082H185.529ZM193.227 27.92C194.007 27.92 194.703 28.082 195.315 28.406C195.939 28.73 196.425 29.21 196.773 29.846C197.121 30.482 197.295 31.25 197.295 32.15V38H195.261V32.456C195.261 31.568 195.039 30.89 194.595 30.422C194.151 29.942 193.545 29.702 192.777 29.702C192.009 29.702 191.397 29.942 190.941 30.422C190.497 30.89 190.275 31.568 190.275 32.456V38H188.223V28.082H190.275V29.216C190.611 28.808 191.037 28.49 191.553 28.262C192.081 28.034 192.639 27.92 193.227 27.92ZM203.909 27.92C204.677 27.92 205.355 28.076 205.943 28.388C206.543 28.688 207.011 29.066 207.347 29.522V28.082H209.417V38.162C209.417 39.074 209.225 39.884 208.841 40.592C208.457 41.312 207.899 41.876 207.167 42.284C206.447 42.692 205.583 42.896 204.575 42.896C203.231 42.896 202.115 42.578 201.227 41.942C200.339 41.318 199.835 40.466 199.715 39.386H201.749C201.905 39.902 202.235 40.316 202.739 40.628C203.255 40.952 203.867 41.114 204.575 41.114C205.403 41.114 206.069 40.862 206.573 40.358C207.089 39.854 207.347 39.122 207.347 38.162V36.506C206.999 36.974 206.525 37.37 205.925 37.694C205.337 38.006 204.665 38.162 203.909 38.162C203.045 38.162 202.253 37.946 201.533 37.514C200.825 37.07 200.261 36.458 199.841 35.678C199.433 34.886 199.229 33.992 199.229 32.996C199.229 32 199.433 31.118 199.841 30.35C200.261 29.582 200.825 28.988 201.533 28.568C202.253 28.136 203.045 27.92 203.909 27.92ZM207.347 33.032C207.347 32.348 207.203 31.754 206.915 31.25C206.639 30.746 206.273 30.362 205.817 30.098C205.361 29.834 204.869 29.702 204.341 29.702C203.813 29.702 203.321 29.834 202.865 30.098C202.409 30.35 202.037 30.728 201.749 31.232C201.473 31.724 201.335 32.312 201.335 32.996C201.335 33.68 201.473 34.28 201.749 34.796C202.037 35.312 202.409 35.708 202.865 35.984C203.333 36.248 203.825 36.38 204.341 36.38C204.869 36.38 205.361 36.248 205.817 35.984C206.273 35.72 206.639 35.336 206.915 34.832C207.203 34.316 207.347 33.716 207.347 33.032ZM220.946 29.756H219.11V38H217.04V29.756H215.87V28.082H217.04V27.38C217.04 26.24 217.34 25.412 217.94 24.896C218.552 24.368 219.506 24.104 220.802 24.104V25.814C220.178 25.814 219.74 25.934 219.488 26.174C219.236 26.402 219.11 26.804 219.11 27.38V28.082H220.946V29.756ZM227.066 38.162C226.13 38.162 225.284 37.952 224.528 37.532C223.772 37.1 223.178 36.5 222.746 35.732C222.314 34.952 222.098 34.052 222.098 33.032C222.098 32.024 222.32 31.13 222.764 30.35C223.208 29.57 223.814 28.97 224.582 28.55C225.35 28.13 226.208 27.92 227.156 27.92C228.104 27.92 228.962 28.13 229.73 28.55C230.498 28.97 231.104 29.57 231.548 30.35C231.992 31.13 232.214 32.024 232.214 33.032C232.214 34.04 231.986 34.934 231.53 35.714C231.074 36.494 230.45 37.1 229.658 37.532C228.878 37.952 228.014 38.162 227.066 38.162ZM227.066 36.38C227.594 36.38 228.086 36.254 228.542 36.002C229.01 35.75 229.388 35.372 229.676 34.868C229.964 34.364 230.108 33.752 230.108 33.032C230.108 32.312 229.97 31.706 229.694 31.214C229.418 30.71 229.052 30.332 228.596 30.08C228.14 29.828 227.648 29.702 227.12 29.702C226.592 29.702 226.1 29.828 225.644 30.08C225.2 30.332 224.846 30.71 224.582 31.214C224.318 31.706 224.186 32.312 224.186 33.032C224.186 34.1 224.456 34.928 224.996 35.516C225.548 36.092 226.238 36.38 227.066 36.38ZM236.295 29.522C236.595 29.018 236.991 28.628 237.483 28.352C237.987 28.064 238.581 27.92 239.265 27.92V30.044H238.743C237.939 30.044 237.327 30.248 236.907 30.656C236.499 31.064 236.295 31.772 236.295 32.78V38H234.243V28.082H236.295V29.522ZM244.517 25.31C245.741 25.31 246.719 25.646 247.451 26.318C248.195 26.99 248.567 27.908 248.567 29.072C248.567 30.284 248.183 31.196 247.415 31.808C246.647 32.42 245.627 32.726 244.355 32.726L244.283 34.148H242.501L242.411 31.322H243.005C244.169 31.322 245.057 31.166 245.669 30.854C246.293 30.542 246.605 29.948 246.605 29.072C246.605 28.436 246.419 27.938 246.047 27.578C245.687 27.218 245.183 27.038 244.535 27.038C243.887 27.038 243.377 27.212 243.005 27.56C242.633 27.908 242.447 28.394 242.447 29.018H240.521C240.521 28.298 240.683 27.656 241.007 27.092C241.331 26.528 241.793 26.09 242.393 25.778C243.005 25.466 243.713 25.31 244.517 25.31ZM243.365 38.126C242.993 38.126 242.681 38 242.429 37.748C242.177 37.496 242.051 37.184 242.051 36.812C242.051 36.44 242.177 36.128 242.429 35.876C242.681 35.624 242.993 35.498 243.365 35.498C243.725 35.498 244.031 35.624 244.283 35.876C244.535 36.128 244.661 36.44 244.661 36.812C244.661 37.184 244.535 37.496 244.283 37.748C244.031 38 243.725 38.126 243.365 38.126Z" fill="#1E1E1E" fill-opacity="0.5"/>
<rect x="393" y="8" width="48" height="48" rx="12" fill="#C1DCDC"/>
<g clip-path="url(#clip0_9_48)">
<path d="M421.678 34.93C422.888 33.2784 423.43 31.2306 423.196 29.1964C422.961 27.1623 421.967 25.2917 420.412 23.9589C418.858 22.6262 416.857 21.9295 414.811 22.0083C412.765 22.0872 410.824 22.9357 409.377 24.3841C407.929 25.8326 407.082 27.7741 407.005 29.8203C406.927 31.8665 407.626 33.8665 408.959 35.4201C410.293 36.9737 412.165 37.9663 414.199 38.1995C416.233 38.4326 418.281 37.8891 419.931 36.6775H419.93C419.968 36.7275 420.008 36.775 420.053 36.8213L424.865 41.6338C425.1 41.8683 425.417 42.0001 425.749 42.0003C426.081 42.0004 426.399 41.8688 426.633 41.6344C426.868 41.4 427 41.082 427 40.7504C427 40.4189 426.868 40.1008 426.634 39.8663L421.821 35.0538C421.777 35.0085 421.729 34.968 421.678 34.93ZM422 30.125C422 31.0278 421.822 31.9218 421.477 32.756C421.131 33.5901 420.625 34.348 419.987 34.9864C419.348 35.6248 418.59 36.1312 417.756 36.4767C416.922 36.8222 416.028 37 415.125 37C414.222 37 413.328 36.8222 412.494 36.4767C411.66 36.1312 410.902 35.6248 410.264 34.9864C409.625 34.348 409.119 33.5901 408.773 32.756C408.428 31.9218 408.25 31.0278 408.25 30.125C408.25 28.3016 408.974 26.553 410.264 25.2636C411.553 23.9743 413.302 23.25 415.125 23.25C416.949 23.25 418.697 23.9743 419.987 25.2636C421.276 26.553 422 28.3016 422 30.125Z" fill="#1E1E1E"/>
</g>
<defs>
<clipPath id="clip0_9_48">
<rect width="20" height="20" fill="white" transform="translate(407 22)"/>
</clipPath>
</defs>
</svg>
